<?xml version="1.0" encoding="UTF-8" standalone="no"?>
<!DOCTYPE svg PUBLIC "-//W3C//DTD SVG 1.1//EN" "http://www.w3.org/Graphics/SVG/1.1/DTD/svg11.dtd">
<svg width="1812px" height="709px" version="1.1" xmlns="http://www.w3.org/2000/svg" xmlns:xlink="http://www.w3.org/1999/xlink" xml:space="preserve" xmlns:serif="http://www.serif.com/" style="fill-rule:evenodd;clip-rule:evenodd;stroke-linejoin:round;stroke-miterlimit:2;">
    <g id="Base">
        <g transform="matrix(1,0,0,1,0,-123.344)">
            <path d="M891.788,207.52L1811.81,207.52L1811.81,330.864L861.393,330.864L758.33,300.36" style="fill:url(#_Linear1);"/>
        </g>
        <g transform="matrix(1,-1.13997e-16,3.12828e-16,1,-179.614,-181.846)">
            <g transform="matrix(41.6667,0,0,41.6667,1169.84,322.319)">
                <path d="M0.418,0.008C0.365,0.008 0.316,-0.001 0.271,-0.018C0.226,-0.036 0.187,-0.061 0.153,-0.093C0.12,-0.126 0.094,-0.164 0.076,-0.207C0.057,-0.251 0.048,-0.298 0.048,-0.35C0.048,-0.402 0.057,-0.449 0.076,-0.493C0.094,-0.536 0.12,-0.574 0.154,-0.607C0.187,-0.639 0.227,-0.664 0.272,-0.682C0.317,-0.699 0.366,-0.708 0.419,-0.708C0.473,-0.708 0.523,-0.699 0.568,-0.681C0.614,-0.662 0.653,-0.635 0.685,-0.599L0.62,-0.536C0.593,-0.564 0.563,-0.585 0.53,-0.599C0.497,-0.612 0.461,-0.619 0.423,-0.619C0.384,-0.619 0.347,-0.612 0.314,-0.599C0.28,-0.586 0.251,-0.567 0.226,-0.543C0.201,-0.519 0.182,-0.49 0.169,-0.457C0.155,-0.425 0.148,-0.389 0.148,-0.35C0.148,-0.311 0.155,-0.275 0.169,-0.243C0.182,-0.21 0.201,-0.181 0.226,-0.157C0.251,-0.133 0.28,-0.114 0.314,-0.101C0.347,-0.088 0.384,-0.081 0.423,-0.081C0.461,-0.081 0.497,-0.088 0.53,-0.101C0.563,-0.115 0.593,-0.136 0.62,-0.165L0.685,-0.102C0.653,-0.066 0.614,-0.039 0.568,-0.02C0.523,-0.001 0.472,0.008 0.418,0.008Z" style="fill:rgb(89,89,89);fill-rule:nonzero;"/>
            </g>
            <g transform="matrix(41.6667,0,0,41.6667,1199.25,322.319)">
                <path d="M0.42,-0L0.42,-0.112L0.415,-0.133L0.415,-0.324C0.415,-0.365 0.404,-0.396 0.38,-0.419C0.356,-0.441 0.321,-0.452 0.273,-0.452C0.241,-0.452 0.211,-0.447 0.181,-0.437C0.151,-0.426 0.126,-0.413 0.105,-0.395L0.065,-0.467C0.092,-0.489 0.125,-0.506 0.164,-0.518C0.202,-0.529 0.242,-0.535 0.284,-0.535C0.357,-0.535 0.413,-0.517 0.452,-0.482C0.492,-0.447 0.511,-0.392 0.511,-0.32L0.511,-0L0.42,-0ZM0.246,0.006C0.207,0.006 0.172,-0.001 0.142,-0.014C0.113,-0.027 0.09,-0.046 0.074,-0.069C0.058,-0.093 0.05,-0.12 0.05,-0.15C0.05,-0.179 0.057,-0.205 0.07,-0.228C0.084,-0.251 0.106,-0.27 0.137,-0.284C0.169,-0.298 0.21,-0.305 0.263,-0.305L0.431,-0.305L0.431,-0.236L0.267,-0.236C0.219,-0.236 0.187,-0.228 0.17,-0.212C0.153,-0.196 0.145,-0.177 0.145,-0.154C0.145,-0.128 0.155,-0.107 0.176,-0.091C0.197,-0.076 0.226,-0.068 0.262,-0.068C0.298,-0.068 0.33,-0.076 0.357,-0.092C0.384,-0.108 0.403,-0.132 0.415,-0.162L0.434,-0.096C0.421,-0.064 0.399,-0.04 0.367,-0.021C0.335,-0.003 0.295,0.006 0.246,0.006Z" style="fill:rgb(89,89,89);fill-rule:nonzero;"/>
            </g>
            <g transform="matrix(41.6667,0,0,41.6667,1224.17,322.319)">
                <path d="M0.091,-0L0.091,-0.53L0.183,-0.53L0.183,-0.387L0.168,-0.425C0.185,-0.46 0.212,-0.487 0.248,-0.506C0.284,-0.526 0.326,-0.535 0.374,-0.535C0.417,-0.535 0.455,-0.527 0.488,-0.51C0.521,-0.494 0.547,-0.468 0.566,-0.434C0.585,-0.4 0.594,-0.357 0.594,-0.305L0.594,-0L0.498,-0L0.498,-0.294C0.498,-0.346 0.486,-0.384 0.461,-0.41C0.436,-0.436 0.4,-0.449 0.355,-0.449C0.321,-0.449 0.292,-0.443 0.266,-0.429C0.241,-0.416 0.222,-0.396 0.208,-0.37C0.194,-0.344 0.187,-0.312 0.187,-0.273L0.187,-0L0.091,-0Z" style="fill:rgb(89,89,89);fill-rule:nonzero;"/>
            </g>
            <g transform="matrix(41.6667,0,0,41.6667,1252.55,322.319)">
                <path d="M0.42,-0L0.42,-0.112L0.415,-0.133L0.415,-0.324C0.415,-0.365 0.404,-0.396 0.38,-0.419C0.356,-0.441 0.321,-0.452 0.273,-0.452C0.241,-0.452 0.211,-0.447 0.181,-0.437C0.151,-0.426 0.126,-0.413 0.105,-0.395L0.065,-0.467C0.092,-0.489 0.125,-0.506 0.164,-0.518C0.202,-0.529 0.242,-0.535 0.284,-0.535C0.357,-0.535 0.413,-0.517 0.452,-0.482C0.492,-0.447 0.511,-0.392 0.511,-0.32L0.511,-0L0.42,-0ZM0.246,0.006C0.207,0.006 0.172,-0.001 0.142,-0.014C0.113,-0.027 0.09,-0.046 0.074,-0.069C0.058,-0.093 0.05,-0.12 0.05,-0.15C0.05,-0.179 0.057,-0.205 0.07,-0.228C0.084,-0.251 0.106,-0.27 0.137,-0.284C0.169,-0.298 0.21,-0.305 0.263,-0.305L0.431,-0.305L0.431,-0.236L0.267,-0.236C0.219,-0.236 0.187,-0.228 0.17,-0.212C0.153,-0.196 0.145,-0.177 0.145,-0.154C0.145,-0.128 0.155,-0.107 0.176,-0.091C0.197,-0.076 0.226,-0.068 0.262,-0.068C0.298,-0.068 0.33,-0.076 0.357,-0.092C0.384,-0.108 0.403,-0.132 0.415,-0.162L0.434,-0.096C0.421,-0.064 0.399,-0.04 0.367,-0.021C0.335,-0.003 0.295,0.006 0.246,0.006Z" style="fill:rgb(89,89,89);fill-rule:nonzero;"/>
            </g>
            <g transform="matrix(41.6667,0,0,41.6667,1277.46,322.319)">
                <rect x="0.091" y="-0.742" width="0.096" height="0.742" style="fill:rgb(89,89,89);fill-rule:nonzero;"/>
            </g>
            <g transform="matrix(41.6667,0,0,41.6667,1289.09,322.319)">
            </g>
            <g transform="matrix(41.6667,0,0,41.6667,1300.3,322.319)">
                <path d="M0.091,-0L0.091,-0.53L0.183,-0.53L0.183,-0.386L0.174,-0.422C0.189,-0.459 0.213,-0.487 0.248,-0.506C0.282,-0.526 0.325,-0.535 0.376,-0.535L0.376,-0.442C0.372,-0.442 0.368,-0.443 0.365,-0.443C0.361,-0.443 0.358,-0.443 0.354,-0.443C0.303,-0.443 0.262,-0.428 0.232,-0.397C0.202,-0.367 0.187,-0.322 0.187,-0.264L0.187,-0L0.091,-0Z" style="fill:rgb(89,89,89);fill-rule:nonzero;"/>
            </g>
            <g transform="matrix(41.6667,0,0,41.6667,1316.88,322.319)">
                <path d="M0.327,0.006C0.27,0.006 0.221,-0.006 0.178,-0.029C0.135,-0.052 0.102,-0.084 0.078,-0.125C0.054,-0.166 0.042,-0.213 0.042,-0.265C0.042,-0.317 0.054,-0.364 0.077,-0.405C0.099,-0.445 0.131,-0.477 0.171,-0.5C0.212,-0.524 0.257,-0.535 0.308,-0.535C0.359,-0.535 0.404,-0.524 0.444,-0.501C0.483,-0.478 0.514,-0.446 0.537,-0.405C0.559,-0.365 0.57,-0.317 0.57,-0.262C0.57,-0.258 0.57,-0.254 0.57,-0.248C0.569,-0.243 0.569,-0.238 0.568,-0.233L0.117,-0.233L0.117,-0.302L0.518,-0.302L0.479,-0.278C0.48,-0.312 0.473,-0.343 0.458,-0.369C0.443,-0.395 0.423,-0.416 0.397,-0.431C0.372,-0.446 0.342,-0.454 0.308,-0.454C0.275,-0.454 0.245,-0.446 0.219,-0.431C0.193,-0.416 0.173,-0.395 0.158,-0.369C0.144,-0.342 0.136,-0.311 0.136,-0.276L0.136,-0.26C0.136,-0.224 0.144,-0.193 0.161,-0.166C0.177,-0.138 0.199,-0.117 0.229,-0.101C0.258,-0.086 0.292,-0.079 0.33,-0.079C0.361,-0.079 0.39,-0.084 0.416,-0.094C0.442,-0.105 0.464,-0.121 0.483,-0.142L0.536,-0.08C0.512,-0.052 0.482,-0.031 0.447,-0.016C0.411,-0.002 0.371,0.006 0.327,0.006Z" style="fill:rgb(89,89,89);fill-rule:nonzero;"/>
            </g>
            <g transform="matrix(41.6667,0,0,41.6667,1342.38,322.319)">
                <path d="M0.091,-0L0.091,-0.742L0.187,-0.742L0.187,-0.387L0.168,-0.425C0.185,-0.46 0.212,-0.487 0.248,-0.506C0.284,-0.526 0.326,-0.535 0.374,-0.535C0.417,-0.535 0.455,-0.527 0.488,-0.51C0.521,-0.494 0.547,-0.468 0.566,-0.434C0.585,-0.4 0.594,-0.357 0.594,-0.305L0.594,-0L0.498,-0L0.498,-0.294C0.498,-0.346 0.486,-0.384 0.461,-0.41C0.436,-0.436 0.4,-0.449 0.355,-0.449C0.321,-0.449 0.292,-0.443 0.266,-0.429C0.241,-0.416 0.222,-0.396 0.208,-0.37C0.194,-0.344 0.187,-0.312 0.187,-0.273L0.187,-0L0.091,-0Z" style="fill:rgb(89,89,89);fill-rule:nonzero;"/>
            </g>
            <g transform="matrix(41.6667,0,0,41.6667,1370.75,322.319)">
                <path d="M0.42,-0L0.42,-0.112L0.415,-0.133L0.415,-0.324C0.415,-0.365 0.404,-0.396 0.38,-0.419C0.356,-0.441 0.321,-0.452 0.273,-0.452C0.241,-0.452 0.211,-0.447 0.181,-0.437C0.151,-0.426 0.126,-0.413 0.105,-0.395L0.065,-0.467C0.092,-0.489 0.125,-0.506 0.164,-0.518C0.202,-0.529 0.242,-0.535 0.284,-0.535C0.357,-0.535 0.413,-0.517 0.452,-0.482C0.492,-0.447 0.511,-0.392 0.511,-0.32L0.511,-0L0.42,-0ZM0.246,0.006C0.207,0.006 0.172,-0.001 0.142,-0.014C0.113,-0.027 0.09,-0.046 0.074,-0.069C0.058,-0.093 0.05,-0.12 0.05,-0.15C0.05,-0.179 0.057,-0.205 0.07,-0.228C0.084,-0.251 0.106,-0.27 0.137,-0.284C0.169,-0.298 0.21,-0.305 0.263,-0.305L0.431,-0.305L0.431,-0.236L0.267,-0.236C0.219,-0.236 0.187,-0.228 0.17,-0.212C0.153,-0.196 0.145,-0.177 0.145,-0.154C0.145,-0.128 0.155,-0.107 0.176,-0.091C0.197,-0.076 0.226,-0.068 0.262,-0.068C0.298,-0.068 0.33,-0.076 0.357,-0.092C0.384,-0.108 0.403,-0.132 0.415,-0.162L0.434,-0.096C0.421,-0.064 0.399,-0.04 0.367,-0.021C0.335,-0.003 0.295,0.006 0.246,0.006Z" style="fill:rgb(89,89,89);fill-rule:nonzero;"/>
            </g>
            <g transform="matrix(41.6667,0,0,41.6667,1395.67,322.319)">
                <path d="M0.372,0.006C0.327,0.006 0.286,-0.005 0.25,-0.025C0.213,-0.045 0.184,-0.075 0.163,-0.115C0.142,-0.155 0.132,-0.205 0.132,-0.265C0.132,-0.325 0.142,-0.375 0.164,-0.415C0.186,-0.455 0.215,-0.485 0.251,-0.505C0.288,-0.525 0.328,-0.535 0.372,-0.535C0.424,-0.535 0.47,-0.524 0.51,-0.501C0.55,-0.479 0.582,-0.447 0.605,-0.407C0.628,-0.366 0.64,-0.319 0.64,-0.265C0.64,-0.211 0.628,-0.164 0.605,-0.123C0.582,-0.083 0.55,-0.051 0.51,-0.028C0.47,-0.006 0.424,0.006 0.372,0.006ZM0.091,-0L0.091,-0.742L0.187,-0.742L0.187,-0.389L0.177,-0.266L0.183,-0.143L0.183,-0L0.091,-0ZM0.364,-0.079C0.398,-0.079 0.429,-0.086 0.455,-0.101C0.482,-0.117 0.504,-0.139 0.519,-0.167C0.535,-0.195 0.543,-0.228 0.543,-0.265C0.543,-0.303 0.535,-0.336 0.519,-0.364C0.504,-0.391 0.482,-0.413 0.455,-0.428C0.429,-0.444 0.398,-0.451 0.364,-0.451C0.33,-0.451 0.3,-0.444 0.273,-0.428C0.246,-0.413 0.225,-0.391 0.209,-0.364C0.194,-0.336 0.186,-0.303 0.186,-0.265C0.186,-0.228 0.194,-0.195 0.209,-0.167C0.225,-0.139 0.246,-0.117 0.273,-0.101C0.3,-0.086 0.33,-0.079 0.364,-0.079Z" style="fill:rgb(89,89,89);fill-rule:nonzero;"/>
            </g>
            <g transform="matrix(41.6667,0,0,41.6667,1424.09,322.319)">
                <path d="M0.091,-0L0.091,-0.53L0.187,-0.53L0.187,-0L0.091,-0ZM0.139,-0.632C0.121,-0.632 0.105,-0.638 0.093,-0.65C0.08,-0.662 0.074,-0.677 0.074,-0.694C0.074,-0.712 0.08,-0.727 0.093,-0.739C0.105,-0.751 0.121,-0.757 0.139,-0.757C0.158,-0.757 0.173,-0.751 0.185,-0.74C0.198,-0.728 0.204,-0.714 0.204,-0.696C0.204,-0.678 0.198,-0.663 0.186,-0.651C0.174,-0.638 0.158,-0.632 0.139,-0.632Z" style="fill:rgb(89,89,89);fill-rule:nonzero;"/>
            </g>
            <g transform="matrix(41.6667,0,0,41.6667,1435.71,322.319)">
                <rect x="0.091" y="-0.742" width="0.096" height="0.742" style="fill:rgb(89,89,89);fill-rule:nonzero;"/>
            </g>
            <g transform="matrix(41.6667,0,0,41.6667,1447.34,322.319)">
                <path d="M0.091,-0L0.091,-0.53L0.187,-0.53L0.187,-0L0.091,-0ZM0.139,-0.632C0.121,-0.632 0.105,-0.638 0.093,-0.65C0.08,-0.662 0.074,-0.677 0.074,-0.694C0.074,-0.712 0.08,-0.727 0.093,-0.739C0.105,-0.751 0.121,-0.757 0.139,-0.757C0.158,-0.757 0.173,-0.751 0.185,-0.74C0.198,-0.728 0.204,-0.714 0.204,-0.696C0.204,-0.678 0.198,-0.663 0.186,-0.651C0.174,-0.638 0.158,-0.632 0.139,-0.632Z" style="fill:rgb(89,89,89);fill-rule:nonzero;"/>
            </g>
            <g transform="matrix(41.6667,0,0,41.6667,1458.84,322.319)">
                <path d="M0.273,0.006C0.22,0.006 0.178,-0.009 0.149,-0.037C0.12,-0.065 0.105,-0.107 0.105,-0.16L0.105,-0.646L0.201,-0.646L0.201,-0.164C0.201,-0.135 0.208,-0.114 0.223,-0.098C0.237,-0.083 0.258,-0.075 0.284,-0.075C0.314,-0.075 0.339,-0.083 0.359,-0.1L0.389,-0.031C0.374,-0.019 0.357,-0.009 0.336,-0.003C0.316,0.003 0.295,0.006 0.273,0.006ZM0.015,-0.451L0.015,-0.53L0.353,-0.53L0.353,-0.451L0.015,-0.451Z" style="fill:rgb(89,89,89);fill-rule:nonzero;"/>
            </g>
            <g transform="matrix(41.6667,0,0,41.6667,1475.25,322.319)">
                <path d="M0.42,-0L0.42,-0.112L0.415,-0.133L0.415,-0.324C0.415,-0.365 0.404,-0.396 0.38,-0.419C0.356,-0.441 0.321,-0.452 0.273,-0.452C0.241,-0.452 0.211,-0.447 0.181,-0.437C0.151,-0.426 0.126,-0.413 0.105,-0.395L0.065,-0.467C0.092,-0.489 0.125,-0.506 0.164,-0.518C0.202,-0.529 0.242,-0.535 0.284,-0.535C0.357,-0.535 0.413,-0.517 0.452,-0.482C0.492,-0.447 0.511,-0.392 0.511,-0.32L0.511,-0L0.42,-0ZM0.246,0.006C0.207,0.006 0.172,-0.001 0.142,-0.014C0.113,-0.027 0.09,-0.046 0.074,-0.069C0.058,-0.093 0.05,-0.12 0.05,-0.15C0.05,-0.179 0.057,-0.205 0.07,-0.228C0.084,-0.251 0.106,-0.27 0.137,-0.284C0.169,-0.298 0.21,-0.305 0.263,-0.305L0.431,-0.305L0.431,-0.236L0.267,-0.236C0.219,-0.236 0.187,-0.228 0.17,-0.212C0.153,-0.196 0.145,-0.177 0.145,-0.154C0.145,-0.128 0.155,-0.107 0.176,-0.091C0.197,-0.076 0.226,-0.068 0.262,-0.068C0.298,-0.068 0.33,-0.076 0.357,-0.092C0.384,-0.108 0.403,-0.132 0.415,-0.162L0.434,-0.096C0.421,-0.064 0.399,-0.04 0.367,-0.021C0.335,-0.003 0.295,0.006 0.246,0.006Z" style="fill:rgb(89,89,89);fill-rule:nonzero;"/>
            </g>
            <g transform="matrix(41.6667,0,0,41.6667,1500.17,322.319)">
                <path d="M0.273,0.006C0.22,0.006 0.178,-0.009 0.149,-0.037C0.12,-0.065 0.105,-0.107 0.105,-0.16L0.105,-0.646L0.201,-0.646L0.201,-0.164C0.201,-0.135 0.208,-0.114 0.223,-0.098C0.237,-0.083 0.258,-0.075 0.284,-0.075C0.314,-0.075 0.339,-0.083 0.359,-0.1L0.389,-0.031C0.374,-0.019 0.357,-0.009 0.336,-0.003C0.316,0.003 0.295,0.006 0.273,0.006ZM0.015,-0.451L0.015,-0.53L0.353,-0.53L0.353,-0.451L0.015,-0.451Z" style="fill:rgb(89,89,89);fill-rule:nonzero;"/>
            </g>
            <g transform="matrix(41.6667,0,0,41.6667,1517.42,322.319)">
                <path d="M0.091,-0L0.091,-0.53L0.187,-0.53L0.187,-0L0.091,-0ZM0.139,-0.632C0.121,-0.632 0.105,-0.638 0.093,-0.65C0.08,-0.662 0.074,-0.677 0.074,-0.694C0.074,-0.712 0.08,-0.727 0.093,-0.739C0.105,-0.751 0.121,-0.757 0.139,-0.757C0.158,-0.757 0.173,-0.751 0.185,-0.74C0.198,-0.728 0.204,-0.714 0.204,-0.696C0.204,-0.678 0.198,-0.663 0.186,-0.651C0.174,-0.638 0.158,-0.632 0.139,-0.632Z" style="fill:rgb(89,89,89);fill-rule:nonzero;"/>
            </g>
            <g transform="matrix(41.6667,0,0,41.6667,1529.05,322.319)">
                <path d="M0.318,0.006C0.265,0.006 0.218,-0.006 0.176,-0.029C0.135,-0.052 0.102,-0.084 0.078,-0.125C0.054,-0.166 0.042,-0.213 0.042,-0.265C0.042,-0.318 0.054,-0.365 0.078,-0.405C0.102,-0.446 0.135,-0.477 0.176,-0.5C0.217,-0.524 0.265,-0.535 0.318,-0.535C0.371,-0.535 0.418,-0.524 0.46,-0.501C0.501,-0.477 0.534,-0.446 0.558,-0.405C0.581,-0.365 0.593,-0.318 0.593,-0.265C0.593,-0.213 0.581,-0.166 0.558,-0.125C0.534,-0.084 0.501,-0.052 0.46,-0.029C0.418,-0.006 0.37,0.006 0.318,0.006ZM0.318,-0.079C0.352,-0.079 0.383,-0.086 0.41,-0.101C0.436,-0.117 0.458,-0.139 0.473,-0.167C0.489,-0.195 0.496,-0.228 0.496,-0.265C0.496,-0.303 0.489,-0.336 0.473,-0.364C0.458,-0.391 0.436,-0.413 0.41,-0.428C0.383,-0.444 0.352,-0.451 0.318,-0.451C0.284,-0.451 0.253,-0.444 0.227,-0.428C0.2,-0.413 0.179,-0.391 0.163,-0.364C0.147,-0.336 0.139,-0.303 0.139,-0.265C0.139,-0.228 0.147,-0.195 0.163,-0.167C0.179,-0.139 0.2,-0.117 0.227,-0.101C0.253,-0.086 0.284,-0.079 0.318,-0.079Z" style="fill:rgb(89,89,89);fill-rule:nonzero;"/>
            </g>
            <g transform="matrix(41.6667,0,0,41.6667,1555.5,322.319)">
                <path d="M0.091,-0L0.091,-0.53L0.183,-0.53L0.183,-0.387L0.168,-0.425C0.185,-0.46 0.212,-0.487 0.248,-0.506C0.284,-0.526 0.326,-0.535 0.374,-0.535C0.417,-0.535 0.455,-0.527 0.488,-0.51C0.521,-0.494 0.547,-0.468 0.566,-0.434C0.585,-0.4 0.594,-0.357 0.594,-0.305L0.594,-0L0.498,-0L0.498,-0.294C0.498,-0.346 0.486,-0.384 0.461,-0.41C0.436,-0.436 0.4,-0.449 0.355,-0.449C0.321,-0.449 0.292,-0.443 0.266,-0.429C0.241,-0.416 0.222,-0.396 0.208,-0.37C0.194,-0.344 0.187,-0.312 0.187,-0.273L0.187,-0L0.091,-0Z" style="fill:rgb(89,89,89);fill-rule:nonzero;"/>
            </g>
            <g transform="matrix(41.6667,0,0,41.6667,1583.88,322.319)">
            </g>
            <g transform="matrix(41.6667,0,0,41.6667,1595.09,322.319)">
                <path d="M0.42,-0L0.42,-0.112L0.415,-0.133L0.415,-0.324C0.415,-0.365 0.404,-0.396 0.38,-0.419C0.356,-0.441 0.321,-0.452 0.273,-0.452C0.241,-0.452 0.211,-0.447 0.181,-0.437C0.151,-0.426 0.126,-0.413 0.105,-0.395L0.065,-0.467C0.092,-0.489 0.125,-0.506 0.164,-0.518C0.202,-0.529 0.242,-0.535 0.284,-0.535C0.357,-0.535 0.413,-0.517 0.452,-0.482C0.492,-0.447 0.511,-0.392 0.511,-0.32L0.511,-0L0.42,-0ZM0.246,0.006C0.207,0.006 0.172,-0.001 0.142,-0.014C0.113,-0.027 0.09,-0.046 0.074,-0.069C0.058,-0.093 0.05,-0.12 0.05,-0.15C0.05,-0.179 0.057,-0.205 0.07,-0.228C0.084,-0.251 0.106,-0.27 0.137,-0.284C0.169,-0.298 0.21,-0.305 0.263,-0.305L0.431,-0.305L0.431,-0.236L0.267,-0.236C0.219,-0.236 0.187,-0.228 0.17,-0.212C0.153,-0.196 0.145,-0.177 0.145,-0.154C0.145,-0.128 0.155,-0.107 0.176,-0.091C0.197,-0.076 0.226,-0.068 0.262,-0.068C0.298,-0.068 0.33,-0.076 0.357,-0.092C0.384,-0.108 0.403,-0.132 0.415,-0.162L0.434,-0.096C0.421,-0.064 0.399,-0.04 0.367,-0.021C0.335,-0.003 0.295,0.006 0.246,0.006Z" style="fill:rgb(89,89,89);fill-rule:nonzero;"/>
            </g>
            <g transform="matrix(41.6667,0,0,41.6667,1620,322.319)">
                <path d="M0.091,-0L0.091,-0.53L0.183,-0.53L0.183,-0.387L0.168,-0.425C0.185,-0.46 0.212,-0.487 0.248,-0.506C0.284,-0.526 0.326,-0.535 0.374,-0.535C0.417,-0.535 0.455,-0.527 0.488,-0.51C0.521,-0.494 0.547,-0.468 0.566,-0.434C0.585,-0.4 0.594,-0.357 0.594,-0.305L0.594,-0L0.498,-0L0.498,-0.294C0.498,-0.346 0.486,-0.384 0.461,-0.41C0.436,-0.436 0.4,-0.449 0.355,-0.449C0.321,-0.449 0.292,-0.443 0.266,-0.429C0.241,-0.416 0.222,-0.396 0.208,-0.37C0.194,-0.344 0.187,-0.312 0.187,-0.273L0.187,-0L0.091,-0Z" style="fill:rgb(89,89,89);fill-rule:nonzero;"/>
            </g>
            <g transform="matrix(41.6667,0,0,41.6667,1648.38,322.319)">
                <path d="M0.31,0.006C0.259,0.006 0.213,-0.006 0.172,-0.028C0.132,-0.051 0.1,-0.083 0.077,-0.123C0.054,-0.164 0.042,-0.211 0.042,-0.265C0.042,-0.319 0.054,-0.366 0.077,-0.407C0.1,-0.447 0.132,-0.479 0.172,-0.501C0.213,-0.524 0.259,-0.535 0.31,-0.535C0.355,-0.535 0.395,-0.525 0.431,-0.505C0.467,-0.485 0.496,-0.455 0.518,-0.415C0.54,-0.375 0.55,-0.325 0.55,-0.265C0.55,-0.205 0.54,-0.155 0.519,-0.115C0.498,-0.075 0.469,-0.045 0.433,-0.025C0.397,-0.005 0.356,0.006 0.31,0.006ZM0.318,-0.079C0.352,-0.079 0.382,-0.086 0.409,-0.101C0.436,-0.117 0.457,-0.139 0.473,-0.167C0.488,-0.195 0.496,-0.228 0.496,-0.265C0.496,-0.303 0.488,-0.336 0.473,-0.364C0.457,-0.391 0.436,-0.413 0.409,-0.428C0.382,-0.444 0.352,-0.451 0.318,-0.451C0.284,-0.451 0.253,-0.444 0.227,-0.428C0.2,-0.413 0.179,-0.391 0.163,-0.364C0.147,-0.336 0.139,-0.303 0.139,-0.265C0.139,-0.228 0.147,-0.195 0.163,-0.167C0.179,-0.139 0.2,-0.117 0.227,-0.101C0.253,-0.086 0.284,-0.079 0.318,-0.079ZM0.499,-0L0.499,-0.143L0.505,-0.266L0.495,-0.389L0.495,-0.742L0.591,-0.742L0.591,-0L0.499,-0Z" style="fill:rgb(89,89,89);fill-rule:nonzero;"/>
            </g>
            <g transform="matrix(41.6667,0,0,41.6667,1676.8,322.319)">
            </g>
            <g transform="matrix(41.6667,0,0,41.6667,1169.84,363.986)">
                <path d="M0.323,0.2C0.275,0.2 0.228,0.193 0.182,0.179C0.136,0.166 0.099,0.147 0.07,0.121L0.116,0.047C0.141,0.068 0.171,0.085 0.207,0.097C0.243,0.109 0.281,0.116 0.32,0.116C0.382,0.116 0.429,0.101 0.458,0.072C0.488,0.043 0.502,-0.002 0.502,-0.062L0.502,-0.174L0.512,-0.279L0.507,-0.385L0.507,-0.53L0.598,-0.53L0.598,-0.072C0.598,0.021 0.575,0.09 0.528,0.134C0.482,0.178 0.413,0.2 0.323,0.2ZM0.311,-0.022C0.26,-0.022 0.214,-0.033 0.173,-0.055C0.133,-0.076 0.101,-0.106 0.077,-0.145C0.054,-0.183 0.042,-0.228 0.042,-0.279C0.042,-0.33 0.054,-0.375 0.077,-0.413C0.101,-0.452 0.133,-0.482 0.173,-0.503C0.214,-0.525 0.26,-0.535 0.311,-0.535C0.357,-0.535 0.398,-0.526 0.435,-0.507C0.472,-0.489 0.502,-0.461 0.524,-0.423C0.547,-0.385 0.558,-0.337 0.558,-0.279C0.558,-0.221 0.547,-0.174 0.524,-0.136C0.502,-0.098 0.472,-0.069 0.435,-0.05C0.398,-0.031 0.357,-0.022 0.311,-0.022ZM0.322,-0.106C0.357,-0.106 0.389,-0.113 0.416,-0.128C0.444,-0.143 0.465,-0.163 0.481,-0.189C0.496,-0.215 0.504,-0.245 0.504,-0.279C0.504,-0.313 0.496,-0.343 0.481,-0.369C0.465,-0.395 0.444,-0.415 0.416,-0.43C0.389,-0.444 0.357,-0.451 0.322,-0.451C0.286,-0.451 0.255,-0.444 0.227,-0.43C0.2,-0.415 0.178,-0.395 0.162,-0.369C0.147,-0.343 0.139,-0.313 0.139,-0.279C0.139,-0.245 0.147,-0.215 0.162,-0.189C0.178,-0.163 0.2,-0.143 0.227,-0.128C0.255,-0.113 0.286,-0.106 0.322,-0.106Z" style="fill:rgb(89,89,89);fill-rule:nonzero;"/>
            </g>
            <g transform="matrix(41.6667,0,0,41.6667,1198.59,363.986)">
                <path d="M0.42,-0L0.42,-0.112L0.415,-0.133L0.415,-0.324C0.415,-0.365 0.404,-0.396 0.38,-0.419C0.356,-0.441 0.321,-0.452 0.273,-0.452C0.241,-0.452 0.211,-0.447 0.181,-0.437C0.151,-0.426 0.126,-0.413 0.105,-0.395L0.065,-0.467C0.092,-0.489 0.125,-0.506 0.164,-0.518C0.202,-0.529 0.242,-0.535 0.284,-0.535C0.357,-0.535 0.413,-0.517 0.452,-0.482C0.492,-0.447 0.511,-0.392 0.511,-0.32L0.511,-0L0.42,-0ZM0.246,0.006C0.207,0.006 0.172,-0.001 0.142,-0.014C0.113,-0.027 0.09,-0.046 0.074,-0.069C0.058,-0.093 0.05,-0.12 0.05,-0.15C0.05,-0.179 0.057,-0.205 0.07,-0.228C0.084,-0.251 0.106,-0.27 0.137,-0.284C0.169,-0.298 0.21,-0.305 0.263,-0.305L0.431,-0.305L0.431,-0.236L0.267,-0.236C0.219,-0.236 0.187,-0.228 0.17,-0.212C0.153,-0.196 0.145,-0.177 0.145,-0.154C0.145,-0.128 0.155,-0.107 0.176,-0.091C0.197,-0.076 0.226,-0.068 0.262,-0.068C0.298,-0.068 0.33,-0.076 0.357,-0.092C0.384,-0.108 0.403,-0.132 0.415,-0.162L0.434,-0.096C0.421,-0.064 0.399,-0.04 0.367,-0.021C0.335,-0.003 0.295,0.006 0.246,0.006Z" style="fill:rgb(89,89,89);fill-rule:nonzero;"/>
            </g>
            <g transform="matrix(41.6667,0,0,41.6667,1223.5,363.986)">
                <path d="M0.273,0.006C0.22,0.006 0.178,-0.009 0.149,-0.037C0.12,-0.065 0.105,-0.107 0.105,-0.16L0.105,-0.646L0.201,-0.646L0.201,-0.164C0.201,-0.135 0.208,-0.114 0.223,-0.098C0.237,-0.083 0.258,-0.075 0.284,-0.075C0.314,-0.075 0.339,-0.083 0.359,-0.1L0.389,-0.031C0.374,-0.019 0.357,-0.009 0.336,-0.003C0.316,0.003 0.295,0.006 0.273,0.006ZM0.015,-0.451L0.015,-0.53L0.353,-0.53L0.353,-0.451L0.015,-0.451Z" style="fill:rgb(89,89,89);fill-rule:nonzero;"/>
            </g>
            <g transform="matrix(41.6667,0,0,41.6667,1240,363.986)">
                <path d="M0.327,0.006C0.27,0.006 0.221,-0.006 0.178,-0.029C0.135,-0.052 0.102,-0.084 0.078,-0.125C0.054,-0.166 0.042,-0.213 0.042,-0.265C0.042,-0.317 0.054,-0.364 0.077,-0.405C0.099,-0.445 0.131,-0.477 0.171,-0.5C0.212,-0.524 0.257,-0.535 0.308,-0.535C0.359,-0.535 0.404,-0.524 0.444,-0.501C0.483,-0.478 0.514,-0.446 0.537,-0.405C0.559,-0.365 0.57,-0.317 0.57,-0.262C0.57,-0.258 0.57,-0.254 0.57,-0.248C0.569,-0.243 0.569,-0.238 0.568,-0.233L0.117,-0.233L0.117,-0.302L0.518,-0.302L0.479,-0.278C0.48,-0.312 0.473,-0.343 0.458,-0.369C0.443,-0.395 0.423,-0.416 0.397,-0.431C0.372,-0.446 0.342,-0.454 0.308,-0.454C0.275,-0.454 0.245,-0.446 0.219,-0.431C0.193,-0.416 0.173,-0.395 0.158,-0.369C0.144,-0.342 0.136,-0.311 0.136,-0.276L0.136,-0.26C0.136,-0.224 0.144,-0.193 0.161,-0.166C0.177,-0.138 0.199,-0.117 0.229,-0.101C0.258,-0.086 0.292,-0.079 0.33,-0.079C0.361,-0.079 0.39,-0.084 0.416,-0.094C0.442,-0.105 0.464,-0.121 0.483,-0.142L0.536,-0.08C0.512,-0.052 0.482,-0.031 0.447,-0.016C0.411,-0.002 0.371,0.006 0.327,0.006Z" style="fill:rgb(89,89,89);fill-rule:nonzero;"/>
            </g>
            <g transform="matrix(41.6667,0,0,41.6667,1265.5,363.986)">
                <path d="M0.243,0.006C0.199,0.006 0.157,-0 0.117,-0.012C0.078,-0.024 0.046,-0.039 0.024,-0.056L0.064,-0.132C0.087,-0.116 0.115,-0.103 0.148,-0.093C0.182,-0.082 0.215,-0.077 0.25,-0.077C0.294,-0.077 0.327,-0.083 0.347,-0.096C0.366,-0.109 0.376,-0.127 0.376,-0.149C0.376,-0.166 0.37,-0.179 0.358,-0.188C0.346,-0.197 0.33,-0.204 0.31,-0.209C0.29,-0.214 0.269,-0.218 0.245,-0.222C0.221,-0.225 0.197,-0.23 0.173,-0.235C0.149,-0.241 0.127,-0.249 0.107,-0.26C0.087,-0.27 0.071,-0.284 0.059,-0.303C0.047,-0.321 0.041,-0.346 0.041,-0.376C0.041,-0.408 0.05,-0.436 0.068,-0.46C0.086,-0.484 0.112,-0.502 0.144,-0.515C0.177,-0.529 0.217,-0.535 0.262,-0.535C0.297,-0.535 0.332,-0.531 0.368,-0.522C0.403,-0.514 0.432,-0.502 0.455,-0.487L0.414,-0.411C0.39,-0.427 0.365,-0.438 0.339,-0.444C0.313,-0.45 0.287,-0.453 0.261,-0.453C0.219,-0.453 0.188,-0.446 0.167,-0.433C0.147,-0.419 0.136,-0.402 0.136,-0.38C0.136,-0.362 0.142,-0.348 0.155,-0.339C0.167,-0.329 0.183,-0.322 0.202,-0.316C0.222,-0.311 0.244,-0.306 0.268,-0.303C0.292,-0.299 0.316,-0.294 0.34,-0.289C0.364,-0.283 0.386,-0.275 0.405,-0.265C0.425,-0.255 0.441,-0.241 0.453,-0.223C0.466,-0.205 0.472,-0.181 0.472,-0.151C0.472,-0.119 0.462,-0.091 0.444,-0.068C0.425,-0.044 0.399,-0.026 0.365,-0.014C0.331,-0.001 0.291,0.006 0.243,0.006Z" style="fill:rgb(89,89,89);fill-rule:nonzero;"/>
            </g>
            <g transform="matrix(41.6667,0,0,41.6667,1286.38,363.986)">
            </g>
            <g transform="matrix(41.6667,0,0,41.6667,1297.59,363.986)">
                <path d="M0.42,-0L0.42,-0.112L0.415,-0.133L0.415,-0.324C0.415,-0.365 0.404,-0.396 0.38,-0.419C0.356,-0.441 0.321,-0.452 0.273,-0.452C0.241,-0.452 0.211,-0.447 0.181,-0.437C0.151,-0.426 0.126,-0.413 0.105,-0.395L0.065,-0.467C0.092,-0.489 0.125,-0.506 0.164,-0.518C0.202,-0.529 0.242,-0.535 0.284,-0.535C0.357,-0.535 0.413,-0.517 0.452,-0.482C0.492,-0.447 0.511,-0.392 0.511,-0.32L0.511,-0L0.42,-0ZM0.246,0.006C0.207,0.006 0.172,-0.001 0.142,-0.014C0.113,-0.027 0.09,-0.046 0.074,-0.069C0.058,-0.093 0.05,-0.12 0.05,-0.15C0.05,-0.179 0.057,-0.205 0.07,-0.228C0.084,-0.251 0.106,-0.27 0.137,-0.284C0.169,-0.298 0.21,-0.305 0.263,-0.305L0.431,-0.305L0.431,-0.236L0.267,-0.236C0.219,-0.236 0.187,-0.228 0.17,-0.212C0.153,-0.196 0.145,-0.177 0.145,-0.154C0.145,-0.128 0.155,-0.107 0.176,-0.091C0.197,-0.076 0.226,-0.068 0.262,-0.068C0.298,-0.068 0.33,-0.076 0.357,-0.092C0.384,-0.108 0.403,-0.132 0.415,-0.162L0.434,-0.096C0.421,-0.064 0.399,-0.04 0.367,-0.021C0.335,-0.003 0.295,0.006 0.246,0.006Z" style="fill:rgb(89,89,89);fill-rule:nonzero;"/>
            </g>
            <g transform="matrix(41.6667,0,0,41.6667,1322.5,363.986)">
                <path d="M0.314,0.006C0.269,0.006 0.229,-0.003 0.194,-0.019C0.16,-0.036 0.134,-0.061 0.115,-0.096C0.096,-0.13 0.086,-0.173 0.086,-0.225L0.086,-0.53L0.182,-0.53L0.182,-0.236C0.182,-0.184 0.195,-0.145 0.22,-0.119C0.244,-0.093 0.28,-0.08 0.325,-0.08C0.358,-0.08 0.387,-0.087 0.412,-0.101C0.436,-0.114 0.455,-0.134 0.469,-0.16C0.483,-0.187 0.489,-0.219 0.489,-0.256L0.489,-0.53L0.585,-0.53L0.585,-0L0.494,-0L0.494,-0.143L0.509,-0.105C0.492,-0.07 0.466,-0.043 0.431,-0.023C0.396,-0.004 0.357,0.006 0.314,0.006Z" style="fill:rgb(89,89,89);fill-rule:nonzero;"/>
            </g>
            <g transform="matrix(41.6667,0,0,41.6667,1350.71,363.986)">
                <path d="M0.273,0.006C0.22,0.006 0.178,-0.009 0.149,-0.037C0.12,-0.065 0.105,-0.107 0.105,-0.16L0.105,-0.646L0.201,-0.646L0.201,-0.164C0.201,-0.135 0.208,-0.114 0.223,-0.098C0.237,-0.083 0.258,-0.075 0.284,-0.075C0.314,-0.075 0.339,-0.083 0.359,-0.1L0.389,-0.031C0.374,-0.019 0.357,-0.009 0.336,-0.003C0.316,0.003 0.295,0.006 0.273,0.006ZM0.015,-0.451L0.015,-0.53L0.353,-0.53L0.353,-0.451L0.015,-0.451Z" style="fill:rgb(89,89,89);fill-rule:nonzero;"/>
            </g>
            <g transform="matrix(41.6667,0,0,41.6667,1367.21,363.986)">
                <path d="M0.318,0.006C0.265,0.006 0.218,-0.006 0.176,-0.029C0.135,-0.052 0.102,-0.084 0.078,-0.125C0.054,-0.166 0.042,-0.213 0.042,-0.265C0.042,-0.318 0.054,-0.365 0.078,-0.405C0.102,-0.446 0.135,-0.477 0.176,-0.5C0.217,-0.524 0.265,-0.535 0.318,-0.535C0.371,-0.535 0.418,-0.524 0.46,-0.501C0.501,-0.477 0.534,-0.446 0.558,-0.405C0.581,-0.365 0.593,-0.318 0.593,-0.265C0.593,-0.213 0.581,-0.166 0.558,-0.125C0.534,-0.084 0.501,-0.052 0.46,-0.029C0.418,-0.006 0.37,0.006 0.318,0.006ZM0.318,-0.079C0.352,-0.079 0.383,-0.086 0.41,-0.101C0.436,-0.117 0.458,-0.139 0.473,-0.167C0.489,-0.195 0.496,-0.228 0.496,-0.265C0.496,-0.303 0.489,-0.336 0.473,-0.364C0.458,-0.391 0.436,-0.413 0.41,-0.428C0.383,-0.444 0.352,-0.451 0.318,-0.451C0.284,-0.451 0.253,-0.444 0.227,-0.428C0.2,-0.413 0.179,-0.391 0.163,-0.364C0.147,-0.336 0.139,-0.303 0.139,-0.265C0.139,-0.228 0.147,-0.195 0.163,-0.167C0.179,-0.139 0.2,-0.117 0.227,-0.101C0.253,-0.086 0.284,-0.079 0.318,-0.079Z" style="fill:rgb(89,89,89);fill-rule:nonzero;"/>
            </g>
            <g transform="matrix(41.6667,0,0,41.6667,1393.67,363.986)">
                <path d="M0.091,-0L0.091,-0.53L0.183,-0.53L0.183,-0.389L0.168,-0.425C0.185,-0.46 0.21,-0.487 0.245,-0.506C0.28,-0.526 0.32,-0.535 0.366,-0.535C0.417,-0.535 0.46,-0.523 0.497,-0.498C0.534,-0.473 0.558,-0.435 0.569,-0.384L0.53,-0.4C0.546,-0.44 0.574,-0.473 0.614,-0.498C0.654,-0.523 0.7,-0.535 0.754,-0.535C0.797,-0.535 0.835,-0.527 0.867,-0.51C0.9,-0.494 0.925,-0.468 0.943,-0.434C0.962,-0.4 0.971,-0.357 0.971,-0.305L0.971,-0L0.875,-0L0.875,-0.294C0.875,-0.346 0.863,-0.384 0.839,-0.41C0.815,-0.436 0.782,-0.449 0.738,-0.449C0.706,-0.449 0.678,-0.443 0.654,-0.429C0.63,-0.416 0.612,-0.396 0.599,-0.37C0.586,-0.344 0.579,-0.312 0.579,-0.273L0.579,-0L0.483,-0L0.483,-0.294C0.483,-0.346 0.471,-0.384 0.447,-0.41C0.424,-0.436 0.39,-0.449 0.346,-0.449C0.315,-0.449 0.287,-0.443 0.263,-0.429C0.239,-0.416 0.22,-0.396 0.207,-0.37C0.194,-0.344 0.187,-0.312 0.187,-0.273L0.187,-0L0.091,-0Z" style="fill:rgb(89,89,89);fill-rule:nonzero;"/>
            </g>
            <g transform="matrix(41.6667,0,0,41.6667,1437.71,363.986)">
                <path d="M0.42,-0L0.42,-0.112L0.415,-0.133L0.415,-0.324C0.415,-0.365 0.404,-0.396 0.38,-0.419C0.356,-0.441 0.321,-0.452 0.273,-0.452C0.241,-0.452 0.211,-0.447 0.181,-0.437C0.151,-0.426 0.126,-0.413 0.105,-0.395L0.065,-0.467C0.092,-0.489 0.125,-0.506 0.164,-0.518C0.202,-0.529 0.242,-0.535 0.284,-0.535C0.357,-0.535 0.413,-0.517 0.452,-0.482C0.492,-0.447 0.511,-0.392 0.511,-0.32L0.511,-0L0.42,-0ZM0.246,0.006C0.207,0.006 0.172,-0.001 0.142,-0.014C0.113,-0.027 0.09,-0.046 0.074,-0.069C0.058,-0.093 0.05,-0.12 0.05,-0.15C0.05,-0.179 0.057,-0.205 0.07,-0.228C0.084,-0.251 0.106,-0.27 0.137,-0.284C0.169,-0.298 0.21,-0.305 0.263,-0.305L0.431,-0.305L0.431,-0.236L0.267,-0.236C0.219,-0.236 0.187,-0.228 0.17,-0.212C0.153,-0.196 0.145,-0.177 0.145,-0.154C0.145,-0.128 0.155,-0.107 0.176,-0.091C0.197,-0.076 0.226,-0.068 0.262,-0.068C0.298,-0.068 0.33,-0.076 0.357,-0.092C0.384,-0.108 0.403,-0.132 0.415,-0.162L0.434,-0.096C0.421,-0.064 0.399,-0.04 0.367,-0.021C0.335,-0.003 0.295,0.006 0.246,0.006Z" style="fill:rgb(89,89,89);fill-rule:nonzero;"/>
            </g>
            <g transform="matrix(41.6667,0,0,41.6667,1462.63,363.986)">
                <path d="M0.273,0.006C0.22,0.006 0.178,-0.009 0.149,-0.037C0.12,-0.065 0.105,-0.107 0.105,-0.16L0.105,-0.646L0.201,-0.646L0.201,-0.164C0.201,-0.135 0.208,-0.114 0.223,-0.098C0.237,-0.083 0.258,-0.075 0.284,-0.075C0.314,-0.075 0.339,-0.083 0.359,-0.1L0.389,-0.031C0.374,-0.019 0.357,-0.009 0.336,-0.003C0.316,0.003 0.295,0.006 0.273,0.006ZM0.015,-0.451L0.015,-0.53L0.353,-0.53L0.353,-0.451L0.015,-0.451Z" style="fill:rgb(89,89,89);fill-rule:nonzero;"/>
            </g>
            <g transform="matrix(41.6667,0,0,41.6667,1479.88,363.986)">
                <path d="M0.091,-0L0.091,-0.53L0.187,-0.53L0.187,-0L0.091,-0ZM0.139,-0.632C0.121,-0.632 0.105,-0.638 0.093,-0.65C0.08,-0.662 0.074,-0.677 0.074,-0.694C0.074,-0.712 0.08,-0.727 0.093,-0.739C0.105,-0.751 0.121,-0.757 0.139,-0.757C0.158,-0.757 0.173,-0.751 0.185,-0.74C0.198,-0.728 0.204,-0.714 0.204,-0.696C0.204,-0.678 0.198,-0.663 0.186,-0.651C0.174,-0.638 0.158,-0.632 0.139,-0.632Z" style="fill:rgb(89,89,89);fill-rule:nonzero;"/>
            </g>
            <g transform="matrix(41.6667,0,0,41.6667,1491.5,363.986)">
                <path d="M0.318,0.006C0.265,0.006 0.218,-0.006 0.176,-0.029C0.135,-0.052 0.102,-0.084 0.078,-0.125C0.054,-0.166 0.042,-0.213 0.042,-0.265C0.042,-0.318 0.054,-0.365 0.078,-0.405C0.102,-0.446 0.135,-0.477 0.176,-0.5C0.217,-0.524 0.265,-0.535 0.318,-0.535C0.371,-0.535 0.418,-0.524 0.46,-0.501C0.501,-0.477 0.534,-0.446 0.558,-0.405C0.581,-0.365 0.593,-0.318 0.593,-0.265C0.593,-0.213 0.581,-0.166 0.558,-0.125C0.534,-0.084 0.501,-0.052 0.46,-0.029C0.418,-0.006 0.37,0.006 0.318,0.006ZM0.318,-0.079C0.352,-0.079 0.383,-0.086 0.41,-0.101C0.436,-0.117 0.458,-0.139 0.473,-0.167C0.489,-0.195 0.496,-0.228 0.496,-0.265C0.496,-0.303 0.489,-0.336 0.473,-0.364C0.458,-0.391 0.436,-0.413 0.41,-0.428C0.383,-0.444 0.352,-0.451 0.318,-0.451C0.284,-0.451 0.253,-0.444 0.227,-0.428C0.2,-0.413 0.179,-0.391 0.163,-0.364C0.147,-0.336 0.139,-0.303 0.139,-0.265C0.139,-0.228 0.147,-0.195 0.163,-0.167C0.179,-0.139 0.2,-0.117 0.227,-0.101C0.253,-0.086 0.284,-0.079 0.318,-0.079Z" style="fill:rgb(89,89,89);fill-rule:nonzero;"/>
            </g>
            <g transform="matrix(41.6667,0,0,41.6667,1517.96,363.986)">
                <path d="M0.091,-0L0.091,-0.53L0.183,-0.53L0.183,-0.387L0.168,-0.425C0.185,-0.46 0.212,-0.487 0.248,-0.506C0.284,-0.526 0.326,-0.535 0.374,-0.535C0.417,-0.535 0.455,-0.527 0.488,-0.51C0.521,-0.494 0.547,-0.468 0.566,-0.434C0.585,-0.4 0.594,-0.357 0.594,-0.305L0.594,-0L0.498,-0L0.498,-0.294C0.498,-0.346 0.486,-0.384 0.461,-0.41C0.436,-0.436 0.4,-0.449 0.355,-0.449C0.321,-0.449 0.292,-0.443 0.266,-0.429C0.241,-0.416 0.222,-0.396 0.208,-0.37C0.194,-0.344 0.187,-0.312 0.187,-0.273L0.187,-0L0.091,-0Z" style="fill:rgb(89,89,89);fill-rule:nonzero;"/>
            </g>
            <g transform="matrix(41.6667,0,0,41.6667,1546.34,363.986)">
            </g>
        </g>
    </g>
    <defs>
        <linearGradient id="_Linear1" x1="0" y1="0" x2="1" y2="0" gradientUnits="userSpaceOnUse" gradientTransform="matrix(1053.48,0,0,123.344,758.33,269.192)"><stop offset="0" style="stop-color:rgb(112,189,183);stop-opacity:0.6"/><stop offset="1" style="stop-color:white;stop-opacity:0.6"/></linearGradient>
    </defs>
</svg>
